<?xml version="1.0" encoding="UTF-8" standalone="no"?>
<svg
   xmlns:dc="http://purl.org/dc/elements/1.1/"
   xmlns:cc="http://creativecommons.org/ns#"
   xmlns:rdf="http://www.w3.org/1999/02/22-rdf-syntax-ns#"
   xmlns:svg="http://www.w3.org/2000/svg"
   xmlns="http://www.w3.org/2000/svg"
   viewBox="0 0 501.00009 751.00018"
   height="751.00018"
   width="501.00009"
   xml:space="preserve"
   id="svg53389"
   version="1.1"><metadata
     id="metadata53395"><rdf:RDF><cc:Work
         rdf:about=""><dc:format>image/svg+xml</dc:format><dc:type
           rdf:resource="http://purl.org/dc/dcmitype/StillImage" /><dc:title></dc:title></cc:Work></rdf:RDF></metadata><defs
     id="defs53393" /><g
     transform="matrix(1.3333333,0,0,-1.3333333,0,751.00016)"
     id="g53397"><g
       id="g53399"><path
         id="path53401"
         style="fill:#ffffff;fill-opacity:1;fill-rule:nonzero;stroke:none"
         d="M 22.875,562.875 C 0.328,562.887 0.375,540.371 0.375,540.371 V 22.875 c 0,0 -0.047,-22.519 22.5,-22.5 h 330 c 22.695,-0.023 22.5,22.5 22.5,22.5 v 517.496 c 0,0 0.188,22.574 -22.5,22.504 z" /><path
         id="path53403"
         style="fill:#2b2c7c;fill-opacity:1;fill-rule:nonzero;stroke:none"
         d="m 22.875,555.371 c -8.281,0 -15,-6.711 -15,-15 V 22.875 c 0,-8.289 6.719,-15 15,-15 h 330 c 8.281,0 15,6.711 15,15 v 517.496 c 0,8.289 -6.719,15 -15,15 z" /><path
         id="path53405"
         style="fill:#ffffff;fill-opacity:1;fill-rule:nonzero;stroke:none"
         d="m 195.336,455.313 h -66.168 v -98.668 h 67.82 c 16.961,0 29.582,5.187 37.95,15.543 8.335,10.351 12.519,21.605 12.519,33.789 0,18.461 -6.559,32.039 -19.648,40.742 -8.411,5.726 -19.231,8.594 -32.473,8.594 z M 128.293,188.906 H 81 l 0.441,311.067 111.493,0.183 c 11.875,0 23.339,-1.269 34.336,-3.797 10.996,-2.531 22.433,-8.492 34.308,-17.839 9.242,-7.227 17.09,-17.141 23.516,-29.789 6.433,-12.653 9.656,-27.313 9.656,-44.016 0,-22.074 -8.105,-43.086 -24.316,-63.016 -16.219,-19.929 -39.911,-29.894 -71.071,-29.894 h -70.195 z" /><path
         id="path53407"
         style="fill:#000000;fill-opacity:1;fill-rule:nonzero;stroke:none"
         d="M 22.875,563.25 C 11.473,563.258 5.684,557.516 2.836,551.797 -0.02,546.082 0,540.371 0,540.371 V 22.875 c 0,0 -0.02,-5.707 2.836,-11.426 C 5.684,5.734 11.473,-0.008 22.875,0 h 330 c 11.473,-0.012 17.266,5.731 20.098,11.449 2.832,5.715 2.777,11.422 2.777,11.426 v 517.5 c 0,0.004 0.047,5.723 -2.781,11.442 -2.836,5.726 -8.629,11.468 -20.094,11.433 z m 0,-0.375 h 330 c 22.688,0.074 22.5,-22.5 22.5,-22.5 v -517.5 c 0,0 0.195,-22.523 -22.5,-22.5 h -330 c -22.547,-0.019 -22.5,22.5 -22.5,22.5 v 517.5 c 0,0 -0.047,22.512 22.5,22.5 z" /><path
         id="path53409"
         style="fill:#ffffff;fill-opacity:1;fill-rule:nonzero;stroke:none"
         d="m 150.535,170.039 -37.359,-46.015 c -0.34,-0.266 -0.653,-0.512 -0.988,-0.774 C 75.289,118.27 42.766,110.402 42.766,110.402 L 60.199,66.164 87.32,66.461 c 1.946,-13.055 13.211,-23.066 26.805,-23.066 13.785,0 25.156,10.3 26.863,23.621 l 86.578,0.91 c 1.297,-13.758 12.887,-24.531 26.985,-24.531 14.289,0 25.972,11.074 27,25.101 l 34.672,0.356 16.761,50.941 c 0,0 -14.078,2.02 -30.164,2.688 -3.418,0.144 -10.148,0.511 -18.422,0.968 l -28.464,45.621 z m 4.684,-6.777 34.101,-0.121 0.907,-34.848 c -8.618,-0.219 -18.051,-0.57 -27.516,-1.008 -2.035,-0.035 -4.035,-0.066 -5.988,-0.121 -8.567,-0.226 -17.528,-0.879 -26.489,-1.777 -2.336,-0.172 -4.629,-0.336 -6.8,-0.516 z m 42.066,-0.18 52.262,-1.402 12.277,-33.567 c -14.379,0.418 -43.851,0.629 -60.508,0.438 -0.918,-0.012 -1.847,-0.067 -2.765,-0.082 z" /></g></g></svg>