<?xml version="1.0" encoding="UTF-8" standalone="no" ?>
<!DOCTYPE svg PUBLIC "-//W3C//DTD SVG 1.1//EN" "http://www.w3.org/Graphics/SVG/1.1/DTD/svg11.dtd">
<svg xmlns="http://www.w3.org/2000/svg" xmlns:xlink="http://www.w3.org/1999/xlink" version="1.1" width="500" height="500" viewBox="0 0 500 500" xml:space="preserve">
<desc>Created with Fabric.js 5.3.0</desc>
<defs>
</defs>
<g transform="matrix(0.4837399994 0 0 0.5302464912 250 253.623259803)" id="lFhI_sbSreX82VG-KNmda"  >
<g style=""   >
		<g transform="matrix(1.25 0 0 -1.25 0.0011 0.000005)" id="Q7nw4pSeso4__WJEoH3MA"  >
<path style="stroke: none; stroke-width: 1; stroke-dasharray: none; stroke-linecap: butt; stroke-dashoffset: 0; stroke-linejoin: miter; stroke-miterlimit: 4; fill: rgb(255,255,255); fill-rule: evenodd; opacity: 1;"  transform=" translate(-404.08, -381.078)" d="M 26.289 762.156 L 781.887 762.156 C 796.348 762.156 808.16 750.3439999999999 808.16 735.886 L 808.16 26.269000000000005 C 808.16 11.832 796.348 0 781.887 0 L 26.289 0 C 11.832 0 0 11.832 0 26.269 L 0 735.886 C 0 750.3439999999999 11.832 762.156 26.289 762.156" stroke-linecap="round" />
</g>
		<g transform="matrix(1.25 0 0 -1.25 0.0011 0.000005)" id="lIHnsw5rP_tXyxO1jPkBM"  >
<path style="stroke: none; stroke-width: 1; stroke-dasharray: none; stroke-linecap: butt; stroke-dashoffset: 0; stroke-linejoin: miter; stroke-miterlimit: 4; fill: rgb(22,18,15); fill-rule: nonzero; opacity: 1;"  transform=" translate(-404.08, -381.078)" d="M 26.289 0.793 C 12.238 0.793 0.816 12.219 0.816 26.269 L 0.816 735.867 C 0.816 749.918 12.238000000000001 761.3629999999999 26.288999999999998 761.3629999999999 L 781.887 761.3629999999999 C 795.9219999999999 761.3629999999999 807.3629999999999 749.9179999999999 807.3629999999999 735.867 L 807.3629999999999 26.269000000000005 C 807.3629999999999 12.219000000000005 795.9219999999999 0.7930000000000064 781.887 0.7930000000000064 L 26.288999999999987 0.7930000000000064 z M 781.887 762.1560000000001 L 26.288999999999987 762.1560000000001 C 11.832 762.156 0 750.324 0 735.867 L 0 26.269 C 0 11.812 11.832 0 26.289 0 L 781.887 0 C 796.328 0 808.16 11.812 808.16 26.269 L 808.16 735.867 C 808.16 750.324 796.328 762.156 781.887 762.156" stroke-linecap="round" />
</g>
		<g transform="matrix(1.25 0 0 -1.25 0.012975 0.00063)" id="DkMfSGjKDCC0XSD_8pW2G"  >
<path style="stroke: none; stroke-width: 1; stroke-dasharray: none; stroke-linecap: butt; stroke-dashoffset: 0; stroke-linejoin: miter; stroke-miterlimit: 4; fill: rgb(21,72,137); fill-rule: evenodd; opacity: 1;"  transform=" translate(-404.0895, -381.0775)" d="M 26.289 749.019 L 781.887 749.019 C 789.117 749.019 795.0229999999999 743.117 795.0229999999999 735.886 L 795.0229999999999 26.269000000000005 C 795.0229999999999 19.043000000000006 789.117 13.136000000000006 781.887 13.136000000000006 L 26.288999999999987 13.136000000000006 C 19.061999999999987 13.136000000000006 13.155999999999988 19.043000000000006 13.155999999999988 26.269000000000005 L 13.155999999999988 735.886 C 13.155999999999988 743.117 19.061999999999987 749.019 26.288999999999987 749.019" stroke-linecap="round" />
</g>
		<g transform="matrix(1.25 0 0 -1.25 -156.0389 -279.24562)" id="Ue62Wqj4ZN9y5dmJA5S2p"  >
<path style="stroke: none; stroke-width: 1; stroke-dasharray: none; stroke-linecap: butt; stroke-dashoffset: 0; stroke-linejoin: miter; stroke-miterlimit: 4; fill: rgb(255,255,255); fill-rule: evenodd; opacity: 1;"  transform=" translate(-279.248, -604.4745)" d="M 236.125 525.625 L 168.85899999999998 525.625 L 219.344 683.3240000000001 L 241.94899999999998 683.3240000000001 L 236.12499999999997 525.625 z M 255.062 525.625 L 249.27700000000002 683.3240000000001 L 271.88300000000004 683.3240000000001 L 288.867 630.176 C 301.75800000000004 644.289 318.293 654.594 336.582 660.027 L 316.301 677.0540000000001 C 314.832 678.3980000000001 314.67199999999997 680.6360000000001 315.957 682.1050000000001 C 316.656 682.8360000000001 317.64799999999997 683.3240000000002 318.645 683.3240000000002 L 386.051 683.3240000000002 C 388.04699999999997 683.3240000000002 389.637 681.7190000000002 389.637 679.7420000000002 C 389.637 679.2540000000001 389.473 678.7850000000002 389.324 678.3550000000002 L 363.238 616.2070000000002 C 362.457 614.3940000000002 360.387 613.5390000000002 358.574 614.3120000000002 C 357.629 614.6990000000002 356.88300000000004 615.4720000000002 356.598 616.4690000000003 L 346.539 646.4060000000003 C 326.746 639.1950000000003 311.859 624.3510000000003 308.76599999999996 608.7930000000003 L 308.602 608.1790000000003 C 305.58599999999996 592.5620000000004 307.82 570.8320000000003 314.72999999999996 549.2690000000003 L 322.328 525.6250000000003 L 255.04299999999998 525.6250000000003" stroke-linecap="round" />
</g>
		<g transform="matrix(1.25 0 0 -1.25 179.0661 -279.24562)" id="Lj8sdKyDg_c5OjGzhMv6A"  >
<path style="stroke: none; stroke-width: 1; stroke-dasharray: none; stroke-linecap: butt; stroke-dashoffset: 0; stroke-linejoin: miter; stroke-miterlimit: 4; fill: rgb(255,255,255); fill-rule: evenodd; opacity: 1;"  transform=" translate(-547.332, -604.4745)" d="M 547.312 696.461 C 496.523 696.461 455.348 655.285 455.348 604.476 C 455.348 553.668 496.523 512.488 547.312 512.488 C 598.121 512.488 639.316 553.668 639.316 604.4760000000001 C 639.316 655.2850000000001 598.121 696.4610000000001 547.312 696.4610000000001 z M 547.312 686.605 C 592.684 686.605 629.441 649.828 629.441 604.476 C 629.441 559.105 592.6840000000001 522.347 547.312 522.347 C 501.961 522.347 465.20300000000003 559.105 465.20300000000003 604.476 C 465.20300000000003 649.828 501.961 686.605 547.312 686.605 z" stroke-linecap="round" />
</g>
		<g transform="matrix(1.25 0 0 -1.25 179.0536 -279.24562)" id="ivqdhd4OL4DNYvEJRJVwq"  >
<path style="stroke: none; stroke-width: 1; stroke-dasharray: none; stroke-linecap: butt; stroke-dashoffset: 0; stroke-linejoin: miter; stroke-miterlimit: 4; fill: rgb(255,255,255); fill-rule: evenodd; opacity: 1;"  transform=" translate(-547.322, -604.4745)" d="M 577.797 611.074 L 597.4300000000001 650.457 L 582.6450000000001 650.457 L 557.4530000000001 599.73 C 555.6600000000001 596.105 554.7270000000001 592.094 554.7270000000001 588.043 L 554.7270000000001 583.949 C 554.7270000000001 569.429 566.4960000000001 557.656 580.9960000000001 557.656 C 595.5160000000001 557.656 607.2850000000001 569.429 607.2850000000001 583.949 L 607.2850000000001 591.3399999999999 C 607.2850000000001 603.1329999999999 597.715 612.6829999999999 585.922 612.6829999999999 C 583.133 612.6829999999999 580.363 612.1329999999999 577.797 611.0739999999998 z M 567.859 583.949 C 567.859 576.679 573.746 570.793 580.9960000000001 570.793 C 588.2460000000001 570.793 594.1290000000001 576.679 594.1290000000001 583.949 L 594.1290000000001 588.043 C 594.1290000000001 595.312 588.2460000000001 601.195 580.9960000000001 601.195 C 573.7460000000001 601.195 567.8590000000002 595.312 567.8590000000002 588.043 L 567.8590000000002 583.949 z M 526.8050000000001 625.0039999999999 C 526.8050000000001 632.2729999999999 520.898 638.1359999999999 513.648 638.1359999999999 C 506.379 638.1359999999999 500.516 632.2729999999998 500.516 625.0039999999999 L 487.35900000000004 625.0039999999999 C 487.35900000000004 639.5229999999999 499.129 651.2929999999999 513.648 651.2929999999999 C 528.168 651.2929999999999 539.941 639.5229999999999 539.941 625.0039999999999 C 539.941 619.0349999999999 537.902 613.2539999999999 534.176 608.5899999999999 L 504.60900000000004 571.6289999999999 L 539.941 571.6289999999999 L 539.941 558.492 L 487.35900000000004 558.492 L 487.35900000000004 570.793 L 523.9340000000001 616.836 C 525.7850000000001 619.1560000000001 526.8050000000001 622.0310000000001 526.8050000000001 625.004" stroke-linecap="round" />
</g>
		<g transform="matrix(1.25 0 0 -1.25 -0.0014 -40.233745)" id="XWvP3gZlLzz-9fGD3VHPc"  >
<path style="stroke: none; stroke-width: 1; stroke-dasharray: none; stroke-linecap: butt; stroke-dashoffset: 0; stroke-linejoin: miter; stroke-miterlimit: 4; fill: rgb(255,255,255); fill-rule: evenodd; opacity: 1;"  transform=" translate(-404.078, -413.265)" d="M 689.902 422.969 L 683.3240000000001 422.969 L 683.3240000000001 433.64 L 689.902 433.64 L 689.902 443.496 C 689.902 452.578 697.254 459.929 706.316 459.929 L 716.172 459.929 L 716.172 447.609 L 707.152 447.609 C 704.8710000000001 447.609 703.039 445.75399999999996 703.039 443.496 L 703.039 433.64 L 716.172 433.64 L 716.172 422.969 L 703.039 422.969 L 703.039 367.945 L 689.902 367.945 L 689.902 422.969 z M 645.551 433.64 L 645.551 426.226 C 649.7660000000001 431.441 656.0980000000001 434.472 662.797 434.472 C 667.871 434.472 672.816 432.722 676.77 429.52299999999997 L 667.422 418 C 665.02 420.136 661.902 421.32 658.684 421.32 C 651.434 421.32 645.5509999999999 415.433 645.5509999999999 408.183 L 645.5509999999999 367.945 L 632.414 367.945 L 632.414 433.64 L 645.5509999999999 433.64 z M 560.1410000000001 407.347 L 560.1410000000001 394.215 C 560.1410000000001 379.265 572.277 367.109 587.2460000000001 367.109 C 602.2150000000001 367.109 614.3320000000001 379.265 614.3320000000001 394.215 L 614.3320000000001 407.347 C 614.3320000000001 422.33599999999996 602.2150000000001 434.472 587.2460000000001 434.472 C 572.277 434.472 560.1410000000001 422.33599999999996 560.1410000000001 407.347 z M 573.277 407.347 L 573.277 394.215 C 573.277 386.515 579.527 380.265 587.2460000000001 380.265 C 594.945 380.265 601.195 386.515 601.195 394.215 L 601.195 407.347 C 601.195 415.066 594.945 421.32 587.2460000000001 421.32 C 579.527 421.32 573.277 415.066 573.277 407.347 z M 528.922 375.35499999999996 L 528.922 367.94499999999994 L 542.059 367.94499999999994 L 542.059 459.9289999999999 L 528.922 459.9289999999999 L 528.922 426.2259999999999 C 524.707 431.44099999999986 518.375 434.47199999999987 511.67600000000004 434.47199999999987 C 499.434 434.47199999999987 489.49600000000004 424.53499999999985 489.49600000000004 412.29699999999985 L 489.49600000000004 389.28499999999985 C 489.49600000000004 377.04699999999985 499.434 367.10899999999987 511.67600000000004 367.10899999999987 C 518.375 367.10899999999987 524.707 370.1439999999999 528.922 375.35499999999985 z M 502.63300000000004 408.183 C 502.63300000000004 415.433 508.53900000000004 421.32 515.789 421.32 C 523.039 421.32 528.922 415.433 528.922 408.183 L 528.922 393.39799999999997 C 528.922 386.14799999999997 523.039 380.265 515.789 380.265 C 508.539 380.265 502.633 386.14799999999997 502.633 393.39799999999997 L 502.633 408.183 z M 468.15600000000006 367.945 C 459.98800000000006 367.945 453.37100000000004 374.562 453.37100000000004 382.726 L 453.37100000000004 459.929 L 466.50800000000004 459.929 L 466.50800000000004 384.35499999999996 C 466.50800000000004 382.097 468.35900000000004 380.265 470.62100000000004 380.265 L 476.36300000000006 380.265 L 476.36300000000006 367.945 L 468.15600000000006 367.945 z M 403.01200000000006 381.26099999999997 C 405.18800000000005 380.38599999999997 407.4920000000001 379.93699999999995 409.83200000000005 379.93699999999995 C 415.20700000000005 379.93699999999995 420.30100000000004 382.28099999999995 423.78100000000006 386.35499999999996 L 433.76200000000006 377.801 C 427.7730000000001 370.816 419.0350000000001 366.804 409.83200000000005 366.804 C 405.82000000000005 366.804 401.84800000000007 367.554 398.12500000000006 369.04299999999995 C 387.84000000000003 373.179 381.09800000000007 383.13599999999997 381.09800000000007 394.215 L 381.09800000000007 407.347 C 381.09800000000007 422.33599999999996 393.2150000000001 434.472 408.2030000000001 434.472 C 423.1480000000001 434.472 435.3090000000001 422.33599999999996 435.3090000000001 407.347 L 435.3090000000001 395.863 L 394.2340000000001 395.863 L 394.2340000000001 394.215 C 394.2340000000001 388.51099999999997 397.7150000000001 383.37899999999996 403.0120000000001 381.26099999999997 z M 408.20300000000003 421.31999999999994 C 400.48400000000004 421.31999999999994 394.23400000000004 415.0659999999999 394.23400000000004 407.3469999999999 L 422.15200000000004 407.3469999999999 C 422.15200000000004 415.0659999999999 415.898 421.31999999999994 408.20300000000003 421.31999999999994 z M 333.87100000000004 408.18299999999994 C 330.41 408.40599999999995 327.70300000000003 411.27699999999993 327.70300000000003 414.7609999999999 C 327.70300000000003 417.7969999999999 329.80100000000004 420.4219999999999 332.754 421.1359999999999 C 334.85200000000003 421.6439999999999 337.031 421.9099999999999 339.207 421.9099999999999 C 345.48 421.9099999999999 351.57 419.7689999999999 356.477 415.8589999999999 L 364.664 426.14399999999995 C 357.43399999999997 431.90599999999995 348.453 435.04299999999995 339.207 435.04299999999995 C 335.992 435.04299999999995 332.793 434.67599999999993 329.676 433.92599999999993 C 320.82 431.7849999999999 314.566 423.86299999999994 314.566 414.7609999999999 C 314.566 404.3359999999999 322.652 395.7219999999999 333.05899999999997 395.0899999999999 L 347.008 394.2149999999999 C 350.469 393.9919999999999 353.15999999999997 391.1209999999999 353.15999999999997 387.6559999999999 C 353.15999999999997 384.9099999999999 351.469 382.4649999999999 348.902 381.50799999999987 C 345.805 380.32799999999986 342.527 379.73399999999987 339.207 379.73399999999987 C 331.89799999999997 379.73399999999987 324.914 382.62899999999985 319.719 387.7809999999999 L 310.453 378.47199999999987 C 318.09 370.85499999999985 328.438 366.6009999999999 339.207 366.6009999999999 C 344.094 366.6009999999999 348.941 367.4759999999999 353.52299999999997 369.1869999999999 C 361.22299999999996 372.0779999999999 366.31199999999995 379.4289999999999 366.31199999999995 387.6559999999999 C 366.31199999999995 398.0619999999999 358.21099999999996 406.6789999999999 347.82399999999996 407.3279999999999 L 333.871 408.18299999999994 z M 266.52700000000004 408.18299999999994 C 263.06600000000003 408.40599999999995 260.35900000000004 411.27699999999993 260.35900000000004 414.7609999999999 C 260.35900000000004 417.7969999999999 262.434 420.4219999999999 265.38700000000006 421.1359999999999 C 267.50800000000004 421.6439999999999 269.6840000000001 421.9099999999999 271.86300000000006 421.9099999999999 C 278.13700000000006 421.9099999999999 284.22300000000007 419.7689999999999 289.13300000000004 415.8589999999999 L 297.32000000000005 426.14399999999995 C 290.09000000000003 431.90599999999995 281.10900000000004 435.04299999999995 271.86300000000006 435.04299999999995 C 268.6480000000001 435.04299999999995 265.44900000000007 434.67599999999993 262.33200000000005 433.92599999999993 C 253.47300000000004 431.7849999999999 247.22300000000004 423.86299999999994 247.22300000000004 414.7609999999999 C 247.22300000000004 404.3359999999999 255.30900000000005 395.7219999999999 265.69100000000003 395.0899999999999 L 279.66400000000004 394.2149999999999 C 283.12500000000006 393.9919999999999 285.81200000000007 391.1209999999999 285.81200000000007 387.6559999999999 C 285.81200000000007 384.9099999999999 284.12500000000006 382.4649999999999 281.5590000000001 381.50799999999987 C 278.46100000000007 380.32799999999986 275.1640000000001 379.73399999999987 271.86300000000006 379.73399999999987 C 264.55100000000004 379.73399999999987 257.57000000000005 382.62899999999985 252.37500000000006 387.7809999999999 L 243.10900000000007 378.47199999999987 C 250.74600000000007 370.85499999999985 261.0900000000001 366.6009999999999 271.86300000000006 366.6009999999999 C 276.75000000000006 366.6009999999999 281.59800000000007 367.4759999999999 286.18000000000006 369.1869999999999 C 293.85900000000004 372.0779999999999 298.96900000000005 379.4289999999999 298.96900000000005 387.6559999999999 C 298.96900000000005 398.0619999999999 290.86300000000006 406.6789999999999 280.47700000000003 407.3279999999999 L 266.52700000000004 408.18299999999994 z M 213.53900000000004 375.3549999999999 C 209.32400000000004 370.1439999999999 202.99200000000005 367.1089999999999 196.29300000000003 367.1089999999999 C 184.05500000000004 367.1089999999999 174.13700000000003 377.0469999999999 174.13700000000003 389.2849999999999 L 174.13700000000003 433.63999999999993 L 187.27000000000004 433.63999999999993 L 187.27000000000004 393.3979999999999 C 187.27000000000004 386.1479999999999 193.15600000000003 380.26499999999993 200.40600000000003 380.26499999999993 C 207.65600000000003 380.26499999999993 213.53900000000004 386.1479999999999 213.53900000000004 393.3979999999999 L 213.53900000000004 433.63999999999993 L 226.69500000000005 433.63999999999993 L 226.69500000000005 367.94499999999994 L 213.53900000000004 367.94499999999994 L 213.53900000000004 375.35499999999996 z M 180.69100000000003 459.9289999999999 L 193.82800000000003 459.9289999999999 L 193.82800000000003 446.7729999999999 L 180.69100000000003 446.7729999999999 L 180.69100000000003 459.9289999999999 z M 206.98400000000004 459.9289999999999 L 220.11700000000005 459.9289999999999 L 220.11700000000005 446.7729999999999 L 206.98400000000004 446.7729999999999 L 206.98400000000004 459.9289999999999 z M 91.98400000000004 459.9289999999999 L 124.85200000000003 459.9289999999999 C 143.00000000000003 459.9289999999999 157.70300000000003 445.20699999999994 157.70300000000003 427.0619999999999 L 157.70300000000003 400.7929999999999 C 157.70300000000003 382.6479999999999 143.00000000000003 367.9449999999999 124.85200000000003 367.9449999999999 L 91.98400000000004 367.9449999999999 L 91.98400000000004 459.92899999999986 z M 105.95300000000003 446.7729999999999 L 124.85200000000003 446.7729999999999 C 135.28100000000003 446.7729999999999 143.73000000000002 438.3239999999999 143.73000000000002 427.8939999999999 L 143.73000000000002 399.9759999999999 C 143.73000000000002 389.5309999999999 135.281 381.07799999999986 124.85200000000002 381.07799999999986 L 105.95300000000002 381.07799999999986 L 105.95300000000002 446.77299999999985" stroke-linecap="round" />
</g>
		<g transform="matrix(1.25 0 0 -1.25 0.0161 140.33438)" id="S9icvzNX43kPqsaoyVDqO"  >
<path style="stroke: none; stroke-width: 1; stroke-dasharray: none; stroke-linecap: butt; stroke-dashoffset: 0; stroke-linejoin: miter; stroke-miterlimit: 4; fill: rgb(255,255,255); fill-rule: evenodd; opacity: 1;"  transform=" translate(-404.092, -268.8105)" d="M 617.629 315.363 L 617.629 281.679 C 621.8480000000001 286.89399999999995 628.1800000000001 289.90599999999995 634.879 289.90599999999995 C 647.117 289.90599999999995 657.0550000000001 279.98799999999994 657.0550000000001 267.72999999999996 L 657.0550000000001 223.37899999999996 L 643.898 223.37899999999996 L 643.898 263.63599999999997 C 643.898 270.88599999999997 638.035 276.77299999999997 630.7660000000001 276.77299999999997 C 623.5160000000001 276.77299999999997 617.6290000000001 270.88599999999997 617.6290000000001 263.63599999999997 L 617.6290000000001 223.37899999999996 L 604.4960000000001 223.37899999999996 L 604.4960000000001 315.36299999999994 L 617.6290000000001 315.36299999999994 z M 578.203 223.37900000000002 C 570.039 223.37900000000002 563.418 230.01500000000001 563.418 238.16000000000003 L 563.418 278.422 L 556.844 278.422 L 556.844 289.09400000000005 L 563.418 289.09400000000005 L 563.418 308.80400000000003 L 576.5550000000001 308.80400000000003 L 576.5550000000001 289.09400000000005 L 586.4100000000001 289.09400000000005 L 586.4100000000001 278.422 L 576.5550000000001 278.422 L 576.5550000000001 239.812 C 576.5550000000001 237.55100000000002 578.4060000000001 235.699 580.6680000000001 235.699 L 586.4100000000001 235.699 L 586.4100000000001 223.37900000000002 L 578.2030000000001 223.37900000000002 z M 517.438 223.37900000000002 L 509.211 223.37900000000002 C 498.336 223.37900000000002 489.49600000000004 232.21500000000003 489.49600000000004 243.09000000000003 C 489.49600000000004 253.98400000000004 498.336 262.80100000000004 509.211 262.80100000000004 L 528.922 262.80100000000004 L 528.922 269.379 C 528.922 272.96500000000003 526.336 276.03900000000004 522.812 276.648 C 520.492 277.07800000000003 518.129 277.261 515.789 277.261 C 513.4259999999999 277.261 511.082 277.07800000000003 508.762 276.648 C 506.441 276.26500000000004 504.465 274.77700000000004 503.426 272.66 L 493.02 280.886 C 496.156 285.50800000000004 501.00399999999996 288.644 506.50399999999996 289.601 C 509.55899999999997 290.133 512.6719999999999 290.418 515.789 290.418 C 518.902 290.418 522 290.133 525.074 289.601 C 534.891 287.89 542.059 279.359 542.059 269.379 L 542.059 223.37900000000002 L 528.922 223.37900000000002 L 528.922 230.16000000000003 C 526.621 225.98400000000004 522.203 223.37900000000002 517.438 223.37900000000002 z M 520.715 235.699 L 510.047 235.699 C 505.504 235.699 501.81600000000003 239.383 501.81600000000003 243.92600000000002 C 501.81600000000003 248.465 505.504 252.133 510.047 252.133 L 528.922 252.133 L 528.922 243.92600000000002 C 528.922 239.383 525.258 235.699 520.715 235.699 z M 451.723 289.094 L 451.723 281.679 C 455.938 286.89399999999995 462.27000000000004 289.90599999999995 468.969 289.90599999999995 C 474.062 289.90599999999995 478.988 288.17599999999993 482.941 284.97999999999996 L 473.594 273.453 C 471.191 275.59 468.094 276.77299999999997 464.879 276.77299999999997 C 457.605 276.77299999999997 451.723 270.88599999999997 451.723 263.63599999999997 L 451.723 223.37899999999996 L 438.586 223.37899999999996 L 438.586 289.09399999999994 L 451.723 289.09399999999994 z M 379.449 289.094 L 379.449 281.679 C 383.664 286.89399999999995 389.99600000000004 289.90599999999995 396.699 289.90599999999995 C 408.938 289.90599999999995 418.875 279.98799999999994 418.875 267.72999999999996 L 418.875 223.37899999999996 L 405.738 223.37899999999996 L 405.738 263.63599999999997 C 405.738 270.88599999999997 399.852 276.77299999999997 392.586 276.77299999999997 C 385.336 276.77299999999997 379.449 270.88599999999997 379.449 263.63599999999997 L 379.449 223.37899999999996 L 366.312 223.37899999999996 L 366.312 289.09399999999994 L 379.449 289.09399999999994 z M 315.95300000000003 236.715 C 318.13300000000004 235.84 320.434 235.39000000000001 322.773 235.39000000000001 C 328.15200000000004 235.39000000000001 333.242 237.734 336.723 241.804 L 346.70300000000003 233.234 C 340.71500000000003 226.269 331.98 222.258 322.773 222.258 C 318.762 222.258 314.793 223.008 311.06600000000003 224.496 C 300.781 228.609 294.03900000000004 238.59 294.03900000000004 249.668 L 294.03900000000004 262.801 C 294.03900000000004 277.789 306.15600000000006 289.906 321.14500000000004 289.906 C 336.11300000000006 289.906 348.23 277.789 348.23 262.801 L 348.23 251.31599999999997 L 307.17600000000004 251.31599999999997 L 307.17600000000004 249.66799999999998 C 307.17600000000004 243.96499999999997 310.65600000000006 238.81199999999998 315.95300000000003 236.71499999999997 z M 321.14500000000004 276.773 C 313.42600000000004 276.773 307.17600000000004 270.519 307.17600000000004 262.80100000000004 L 335.09400000000005 262.80100000000004 C 335.09400000000005 270.51900000000006 328.84400000000005 276.773 321.14500000000004 276.773 z M 251.33600000000004 315.36300000000006 L 213.53900000000004 315.36300000000006 L 213.53900000000004 223.37900000000008 L 252.15200000000004 223.37900000000008 C 266.20300000000003 223.37900000000008 277.605 234.78100000000006 277.605 248.85100000000008 C 277.605 257.6910000000001 273.004 265.91800000000006 265.449 270.56200000000007 C 272.047 275.16400000000004 275.957 282.69900000000007 275.957 290.7420000000001 C 275.957 304.34400000000005 264.941 315.36300000000006 251.33599999999998 315.36300000000006 z M 250.50800000000004 264.4530000000001 C 258.22700000000003 264.4530000000001 264.47700000000003 258.19900000000007 264.47700000000003 250.48000000000008 C 264.47700000000003 242.78500000000008 258.22700000000003 236.53100000000006 250.50800000000004 236.53100000000006 L 227.51600000000005 236.53100000000006 L 227.51600000000005 264.4530000000001 L 250.50800000000004 264.4530000000001 z M 249.69100000000003 303.06200000000007 C 256.94100000000003 303.06200000000007 262.82800000000003 297.17600000000004 262.82800000000003 289.90600000000006 C 262.82800000000003 282.65600000000006 256.94100000000003 276.7730000000001 249.69100000000003 276.7730000000001 L 227.51600000000002 276.7730000000001 L 227.51600000000002 303.06200000000007 L 249.69100000000003 303.06200000000007 z M 151.12900000000002 266.10100000000006 L 190.555 266.10100000000006 L 190.555 252.94500000000005 L 151.12900000000002 252.94500000000005 L 151.12900000000002 266.10100000000006" stroke-linecap="round" />
</g>
		<g transform="matrix(1.25 0 0 -1.25 -82.120775 320.30563)" id="lwypASaOKJOcY4VUiGY6c"  >
<path style="stroke: none; stroke-width: 1; stroke-dasharray: none; stroke-linecap: butt; stroke-dashoffset: 0; stroke-linejoin: miter; stroke-miterlimit: 4; fill: rgb(255,255,255); fill-rule: evenodd; opacity: 1;"  transform=" translate(-338.3825, -124.8335)" d="M 406.555 145.383 L 406.555 104.304 C 406.555 89.785 418.324 78.015 432.844 78.015 C 447.344 78.015 459.113 89.785 459.113 104.304 L 459.113 145.383 C 459.113 159.883 447.344 171.65200000000002 432.844 171.65200000000002 C 418.324 171.65200000000002 406.555 159.883 406.555 145.383 z M 419.688 145.383 L 419.688 104.304 C 419.688 97.035 425.574 91.172 432.844 91.172 C 440.094 91.172 445.98 97.035 445.98 104.304 L 445.98 145.383 C 445.98 152.633 440.094 158.496 432.844 158.496 C 425.574 158.496 419.688 152.633 419.688 145.383 z M 335.90999999999997 145.383 L 335.90999999999997 104.304 C 335.90999999999997 89.785 347.69899999999996 78.015 362.19899999999996 78.015 C 376.71899999999994 78.015 388.48799999999994 89.785 388.48799999999994 104.304 L 388.48799999999994 145.383 C 388.48799999999994 159.883 376.71899999999994 171.65200000000002 362.19899999999996 171.65200000000002 C 347.69899999999996 171.65200000000002 335.90999999999997 159.883 335.90999999999997 145.383 z M 349.066 145.383 L 349.066 104.304 C 349.066 97.035 354.94899999999996 91.172 362.19899999999996 91.172 C 369.46899999999994 91.172 375.33599999999996 97.035 375.33599999999996 104.304 L 375.33599999999996 145.383 C 375.33599999999996 152.633 369.46899999999994 158.496 362.19899999999996 158.496 C 354.94899999999996 158.496 349.066 152.633 349.066 145.383 z M 265.28499999999997 145.383 L 265.28499999999997 104.304 C 265.28499999999997 89.785 277.05499999999995 78.015 291.578 78.015 C 306.078 78.015 317.84799999999996 89.785 317.84799999999996 104.304 L 317.84799999999996 145.383 C 317.84799999999996 159.883 306.078 171.65200000000002 291.578 171.65200000000002 C 277.05499999999995 171.65200000000002 265.28499999999997 159.883 265.28499999999997 145.383 z M 278.42199999999997 145.383 L 278.42199999999997 104.304 C 278.42199999999997 97.035 284.30499999999995 91.172 291.578 91.172 C 298.828 91.172 304.71099999999996 97.035 304.71099999999996 104.304 L 304.71099999999996 145.383 C 304.71099999999996 152.633 298.828 158.496 291.578 158.496 C 284.30499999999995 158.496 278.42199999999997 152.633 278.42199999999997 145.383 z M 217.65199999999996 160.961 L 230.78899999999996 170.816 L 243.92599999999996 170.816 L 243.92599999999996 78.851 L 230.78899999999996 78.851 L 230.78899999999996 156.86700000000002 L 217.65199999999996 147.01100000000002 L 217.65199999999996 160.961" stroke-linecap="round" />
</g>
		<g transform="matrix(1.25 0 0 -1.25 175.56735 336.201255)" id="4nGtYE70qL4FYPddvhisJ"  >
<path style="stroke: none; stroke-width: 1; stroke-dasharray: none; stroke-linecap: butt; stroke-dashoffset: 0; stroke-linejoin: miter; stroke-miterlimit: 4; fill: rgb(255,255,255); fill-rule: evenodd; opacity: 1;"  transform=" translate(-544.533, -112.117)" d="M 511.676 137.133 C 515.891 142.328 522.223 145.383 528.922 145.383 C 535.988 145.383 542.629 142 546.801 136.30100000000002 C 551.484 142.043 558.4920000000001 145.383 565.883 145.383 C 579.488 145.383 590.527 134.324 590.527 120.71900000000001 L 590.527 78.851 L 577.3910000000001 78.851 L 577.3910000000001 119.09 C 577.3910000000001 126.34 571.5040000000001 132.226 564.234 132.226 C 556.984 132.226 551.1020000000001 126.34 551.1020000000001 119.09 L 551.1020000000001 78.851 L 537.9650000000001 78.851 L 537.9650000000001 119.09 C 537.9650000000001 126.34 532.0780000000002 132.226 524.8090000000002 132.226 C 517.5590000000002 132.226 511.6760000000002 126.34 511.6760000000002 119.09 L 511.6760000000002 78.851 L 498.5390000000002 78.851 L 498.5390000000002 144.547 L 511.6760000000002 144.547 L 511.6760000000002 137.133" stroke-linecap="round" />
</g>
</g>
</g>
<g transform="matrix(3.8427859969 0 0 2.8093725335 250 335.1787457266)" id="stC3JWXExnmePefxSXvxu"  >
<path style="stroke: none; stroke-width: 1; stroke-dasharray: none; stroke-linecap: butt; stroke-dashoffset: 0; stroke-linejoin: miter; stroke-miterlimit: 4; fill: rgb(186,1,1); fill-rule: nonzero; opacity: 1;"  transform=" translate(-40, -40)" d="M 63.366 80 L 40 56.634 L 16.634 80 L 0 63.366 L 23.366 40 L 0 16.634 L 16.634 0 L 40 23.366 L 63.366 0 L 80 16.634 L 56.634 40 L 80 63.366 L 63.366 80 z" stroke-linecap="round" />
</g>
</svg>