<?xml version="1.0" standalone="no"?>
<!DOCTYPE svg PUBLIC "-//W3C//DTD SVG 20010904//EN"
 "http://www.w3.org/TR/2001/REC-SVG-20010904/DTD/svg10.dtd">
<svg version="1.0" xmlns="http://www.w3.org/2000/svg"
 width="96.000000pt" height="96.000000pt" viewBox="0 0 96.000000 96.000000"
 preserveAspectRatio="xMidYMid meet">

<g transform="translate(0.000000,96.000000) scale(0.100000,-0.100000)"
fill="#000000" stroke="none">
<path d="M140 820 c-19 -19 -20 -33 -20 -340 0 -307 1 -321 20 -340 19 -19 33
-20 340 -20 307 0 321 1 340 20 19 19 20 33 20 340 0 307 -1 321 -20 340 -19
19 -33 20 -340 20 -307 0 -321 -1 -340 -20z m320 -130 l0 -70 -34 0 -35 0 20
58 c10 31 21 63 24 70 2 6 9 12 15 12 6 0 10 -29 10 -70z m86 -3 l23 -67 -35
0 -34 0 0 71 c0 89 15 88 46 -4z m234 -107 c0 -13 -7 -20 -20 -20 -13 0 -20
-7 -20 -20 0 -16 -7 -20 -30 -20 -23 0 -30 4 -30 20 0 19 -7 20 -200 20 -193
0 -200 -1 -200 -20 0 -16 -7 -20 -30 -20 -23 0 -30 4 -30 20 0 13 -7 20 -20
20 -13 0 -20 7 -20 20 0 20 7 20 300 20 293 0 300 0 300 -20z m-320 -220 l0
-160 -100 0 c-55 0 -100 2 -100 4 0 3 23 75 50 160 l51 156 49 0 50 0 0 -160z
m190 4 c27 -85 50 -157 50 -160 0 -2 -45 -4 -100 -4 l-100 0 0 160 0 160 50 0
49 0 51 -156z"/>
</g>
</svg>
